<?xml version="1.0" encoding="utf-8"?>
<svg viewBox="0 0 500 500" xmlns="http://www.w3.org/2000/svg">
  <path d="M 268.486 192.563 C 268.486 218.363 247.586 239.163 221.886 239.163 C 196.186 239.163 175.286 218.263 175.286 192.563 C 175.286 166.763 196.186 145.963 221.886 145.963 C 247.586 145.863 268.486 166.763 268.486 192.563 Z" fill="#9e1c1c"/>
  <path class="st1" d="M 265.086 161.063 C 186.686 79.863 67.886 83.563 67.886 83.563 L 67.886 346.463 L 338.486 346.463 C 338.486 346.363 344.486 243.263 265.086 161.063 Z M 327.586 335.663 L 78.886 335.663 L 78.886 94.163 C 78.886 94.163 191.886 97.363 258.786 168.363 C 329.186 243.063 327.586 335.663 327.586 335.663 Z"/>
</svg>