<?xml version="1.0" encoding="utf-8"?>
<!-- Generator: Adobe Illustrator 25.0.1, SVG Export Plug-In . SVG Version: 6.00 Build 0)  -->
<svg version="1.1" id="Layer_1" xmlns="http://www.w3.org/2000/svg" xmlns:xlink="http://www.w3.org/1999/xlink" x="0px" y="0px"
	 viewBox="0 0 270.7 262.9" style="enable-background:new 0 0 270.7 262.9;" xml:space="preserve">
<style type="text/css">
	.st0{fill:#CC3533;}
</style>
<g>
	<path class="st0" d="M201,109.4c0,25.8-20.9,46.6-46.6,46.6c-25.7,0-46.6-20.9-46.6-46.6c0-25.8,20.9-46.6,46.6-46.6
		C180.2,62.7,201,83.6,201,109.4z"/>
	<path d="M197.2,77.6C118.8-3.6,0,0,0,0v262.9h270.6C270.6,262.9,276.6,159.8,197.2,77.6z M259.7,252.2H11V10.7
		c0,0,113,3.2,179.9,74.2C261.3,159.5,259.7,252.2,259.7,252.2z"/>
</g>
</svg>
